<mxfile host="65bd71144e">
    <diagram id="tDHU-kyZuflVK9DNFlhx" name="Page-1">
        <mxGraphModel dx="1770" dy="1042" grid="0" gridSize="10" guides="1" tooltips="1" connect="1" arrows="1" fold="1" page="1" pageScale="1" pageWidth="2339" pageHeight="3300" math="0" shadow="0">
            <root>
                <mxCell id="0"/>
                <mxCell id="1" parent="0"/>
                <mxCell id="2" value="数据源采集" style="rounded=1;whiteSpace=wrap;html=1;glass=0;shadow=0;" vertex="1" parent="1">
                    <mxGeometry x="832" y="214" width="120" height="60" as="geometry"/>
                </mxCell>
                <mxCell id="5" value="非结构化数据" style="whiteSpace=wrap;html=1;rounded=1;glass=0;shadow=0;" vertex="1" parent="1">
                    <mxGeometry x="1429" y="128" width="120" height="60" as="geometry"/>
                </mxCell>
                <mxCell id="6" value="数据集成" style="rounded=1;whiteSpace=wrap;html=1;glass=1;shadow=1;" vertex="1" parent="1">
                    <mxGeometry x="303" y="142" width="120" height="60" as="geometry"/>
                </mxCell>
                <mxCell id="7" value="数据拷贝服务" style="whiteSpace=wrap;html=1;rounded=1;glass=0;shadow=0;" vertex="1" parent="1">
                    <mxGeometry x="1002" y="136" width="120" height="60" as="geometry"/>
                </mxCell>
                <mxCell id="8" value="ETL" style="whiteSpace=wrap;html=1;rounded=1;glass=0;shadow=0;" vertex="1" parent="1">
                    <mxGeometry x="1188" y="330" width="120" height="60" as="geometry"/>
                </mxCell>
                <mxCell id="9" value="WebService" style="whiteSpace=wrap;html=1;rounded=1;glass=0;shadow=0;" vertex="1" parent="1">
                    <mxGeometry x="1346" y="330" width="120" height="60" as="geometry"/>
                </mxCell>
                <mxCell id="10" value="基础设施" style="rounded=1;whiteSpace=wrap;html=1;glass=0;shadow=0;" vertex="1" parent="1">
                    <mxGeometry x="832" y="133" width="120" height="60" as="geometry"/>
                </mxCell>
                <mxCell id="12" value="半结构化数据" style="whiteSpace=wrap;html=1;rounded=1;glass=0;shadow=0;" vertex="1" parent="1">
                    <mxGeometry x="1182" y="412" width="120" height="60" as="geometry"/>
                </mxCell>
                <mxCell id="13" value="" style="shape=image;verticalLabelPosition=bottom;labelBackgroundColor=default;verticalAlign=top;aspect=fixed;imageAspect=0;image=data:image/png,iVBORw0KGgoAAAANSUhEUgAAAGwAAABtCAYAAABEOoRoAAAgAElEQVR4nO2d13McR57nP5lZph08CQI0oAWN7MhLo9GYHc1uxO5EzMbu3cXGXdw97L+1z/d4EXd7exc7ZmN2jDSj0VCOFD1BBxqQIHy7qsrMe8iq6upGgwQlghIu8GMUG1WVlZWZ3/zZNCWstZYd2jYkv+kC7NCT0Q5g24x2ANtmtAPYNqMdwLYZ7QC2zWgHsG1GO4BtM9oBbJvRDmDbjHYA22a0A9g2ox3AthntALbNaAewbUY7gG0z2gFsm9EOYNuMdgDbZrQD2DajHcC2GXkGs+FNi5tQpXQMJgKdgPQARdOGNPGIJRgfNDBfhwszcObMeS5dmuHB/ArLK22MVRgL1goMBmMNBoO1BoPFILBCYARYwCJAiPRvRyI9OoWzYLvLLkgfyPNxV22aVyFVXkPPGrxGiyE/oFLxkUojlWbPxCgvvHiS77zyAgcmBQMGvDr4AQwOAmaRctDCE+30vRKooamBUK7dUE8AxeZIaKs3nObWASxxgJkEhA/Co2FDWggI4OYcfPrlVX77x9PM3LrL6mqTVjMmTiRxLNBGgkibXFiXrzCFhhVYgTuy8/RaV2G7CtcNWHZP2BQokeUDVoi0PlnKLLVFWUvFgBcnCKnxA0EQSCwRzfYae/eO88LJk7x46BTfOXKCw4ehWgNMg0A18EQbmb2QCprKNwcYWIQFYRIgAWOAgISASAjWYpiZXeKDjz/hD3/+hNl7c/ilMpMT+5iY2MfQ0Bjl0iBYkYJvESQ4fjTuV+CQ6uEom3IG5EyzAWAF3rFpdmmWFIDPr1mR52YRSKAkfXQrIk4ilCfQJub27Rvcf3CXlZUlJIKqHObtF7/H+++/zpFDHqUAPBHhiQiJQWKxwseIIC/pswfMWiRgrWtgi0XbEsYK1iK4cnOef/7Xn/OHj/9MbA1Thw5w+NgRjhw6wr69+xkaGKFSUnljCwFSgCRBCINAp/cERXayImvQJxeJwnY4FTrAW0Eq/IuAyTxXYyDRECeaVqvB0tIi9cYqMzNXuHxphpkL96n4E7z95vP84Huv8PypMaoBeBKkNUihXeUK4ncrAPM6fbIPpZW0QmFRCBSxhnoTbtxZ5vcfnObff/07WnGDd7//Xd566zWmpvYzOjRCrVLC91yFhHDWjSQDzHN1S69hCyINujmtI726Acuu9RS9WJuOiKVH5OaPA2AsCOnOo1gRxQMwMQACjh6Y5NjBw/ypdoHPPrnG7z/8EGObDAy+z5GpMokG35NIA8JalCfWl/Mpkvfo25lIkmhc40bA3YeWj0+f41e//oBWK+Z7773DX//VXzB97BDVcoC0oKzTINJYhDMrXIWQCCTSCkR2uJdswCHkKHRzGF39rEuHiUIS0f1rCuekvyplOitAAaEH2ri0UxOj7JsYZdfIFJ73ER999Ac+Ov0FE5OTjIy8TjVMJToSTxrUFhvejwEsrRQOKA3UI7h9d4GPT5/l8qXr/Pj9d/n7v/8Z47trlD0PX4O0Fkkq8mT6azMh5Lm/rUQUWzZ7Vx+wMh3WRaKYqJCmmGWfri7ShBmwwoIQBqxx1ikCrQVxK6Eda5QfUqoKpqeHafE2bb3KHz74I7//8AOOTx/i5PQu2hqn07yt95I2DZgCFjXM3m7y+eeXuHNnnuef+w4//enPOHFigoX5RUSsCTynF5zOsghrSAVryigmt6Js1qKZHFuPX0eH9VqMqTVYvN7frF8vCruVgOP8DEQAJQW1QR+hfKyGh6sQ1ODEi0M0Wm9y+/ZNLl25yOlPTzO5931GhxXSc220leIQcsA21mNZRVeNRSnB3TvznD1zmait+cH33+CllyYwBgYHqpSsh5faAd0mecdSExR8IlFoXdH7zPoSieKNniLnYlV0c1cvcDnQhTJYUWBY6wyQtXbqdkonIuvG3du/f5Q333qZuTu3+PjPpzl1aprhV4+gcN1SsrWged3d23Yq15syShD4LNxdYPlhk9HhIY4f30vgpZUqBXgtgzIGk/paVoC1EtNlssuUK2xaRdFVw9xX6vZvc8rFnoWi3Vf8o2iIdHExRdM+s1hsIU93zUiL9QRWghYSJBgT4xvNntEKLz5/lA9/M8S1mVtcm7nLiRMHKZUVgYXyFrNYgcOydrHdvTL99ZEkDagvNYiaMD5eY3JiAHC9SglQGKQ1uagyVmCQZELRZDgI0WGJgjtL4Z1FLugSewW5li1ty/yvTqL11iM994uUR0JEVn+L9cDYtAMLS+gZQmnQ0jI8GDI8NMClxiyLCw1abYNGPSJm9PRoUzoMwPMUrVaTtdUVTBRTq44wNjYGdKy7HIiC4ZA1psgVfCfPHJQes76LbJ7lOrZ/dksRLZ6UgMUKQSmsMDY6jtYXWF5eJY5jBD5yqxUYTwCYUtBqNamvrKLjmHIQUq2oLl+oaLita8sCWL0GQwZ4EZhi3fP7BZUHqe+c/f0Y/fd1SdsERAw2JPTLjI7sxhrByvIacRwhqTyTSPqGgPUYbggBWmuiKMJog5QSY3BxNOvEk7GkHlcmXFPqI7KKCUThUietWHctUzOdPwrqrIjQ1+rpHXlazCZJIqxoARWk9KmUBxHCp92K0TrBogHVXZctoL6A9dX3FsrlMkEQIKULX6TWMNZYjNUYY9E44HIu67HRrexc7HSI3ioWLYTeghT+7uug9dKT85pIO50oiAAhLFYkaecRCDyUDJEywDkrEZYAUF169mnTY0Vi0Xq21uaKXgqBVLiQjrUY4w5rAVkwJVKb2Ykzh6TttEP+Rw5+/kLRlc70lIWCe2C7Muv2sb4u5ZJGWOdgp+fWKgQe2ZBi2lURWxA/LNKmddg6kg4wKTPrOG3xNEjY6+hmeGUtsI55NmCm/FZmibM+3Yb+2lMjF16T0kkR90KJtRKBQogMtK23ggqA2Z4e3KHMyrOAxpJIsCkw1rpD5rm4J7pUSo+xkF3b0FB4xPVuH2sD6tWZX5NyVwTpxKVw7aAtGOHC2pJCh9xCSgHr9NUiaL0AGmFpebAaQEu52KKXm+0il/m5s5rqAUsWpRMUR7A61mV3LYtAZmlsn5bYKC4uuoyGLqG+Lu1GoHeJaxTCltLIscJi0KJNy9NEnkAiCRMPD/F1ZNamyOtnhG8EmhHQUpbVENqeA8zJd4FM5aDtZRsKDdtx0/q8sXCWcd+61hSPPM3JZjxe9O76s93GUkXkUsGVvwTWGRWIBols0fI0bSUQKMJEIaTsiO8toifqD0Voi1H1jHuyk17RlvNboWVE3hgb1K+PL5brwcfQVrRX0Zp17ZAaYKmoxMpOA30bAMsc2mKr91qvQnSgy4cuuuy6bn8qN0z6dP5+dd5i9fBIEkJ0SQfXFJmod4A9i12g+o6P9naSDhfYHK/e52SaqtviS/ul7UCb5yUKTvCmoHgSuHrTfpWGdCLASQJLPsqQuRwFF8edF7h/6/2wrkGPfkV3h+38dt3PCyi6xGDGb6JohgjR4awNfaevX9P1hkw3pz/u6TxVzv39ZEBRRKy3BbaCvE5ROgV6VNH6tHV+bllvLDwq7/42hdjgZn/ql1+u7/LrKfcLuykd2CO83ZUuY6ofB/ezY58+fW0jtMh9VqQGfKHk2aBe1lOzYZYc3EdlnFJfK66o9wpI5QOltvCc6HEVNlEvm3e19UB1eMn2HFtPT8VryBtPWCd6rAsCSyGQ1gGUgWZFAbB1GXXnV1QJefo0jSQNPFPkpE4IqxeVbLqbm7bX/cLeCEU+PlbU17k/mAYLSOuay8yiFbV1tDFgPSZ48Xpf8WhTsSBcRC2bHmeEQApIcNPJ4gTm55dZXV1lcnKCasVz81MBTLcLEMcJpZJHq21pRwnK95GKdNo3JDF4CpQHRoMnHIjWgue5ISFrwfeh1RJEsXIdRhqSxGKRqHTMXSrwPVeGONKEviLwU6mQ2JzTbGosuUickyYirfezIK9vn3jMu4tl6zxv3RCEB9LzAUErjtzkTG3dULvyaTebnL1wnquXr/DmG29w8sQJoiiGbFqctShPoZQkThJk7HHx0iXu3p/HC8pIzyc2FkSZduQThgFCNoijVaqyhpcElMqG4yf2MTIS0G5bfCG4c3uNO3eWqJsGkYyIjcLYMkr5SKmRJJRDD2ET4sYyo4MVpo8cZGS4RKINWImUosNhlk50J7fIvkkOewx1/LJMhAniKMYiCIMQa2BhcZmbt++ytLJGZCAsV9FxzJkzZzl39ixr9QatdoTWGnDT4wSWoaFBpg4coFIpsbi0ys9/+StuzN7BDytIPyA2lkQHLC7GjO/ZjbErJPEag/4QrcWIwUHFP/7jf2Ry1ySJErQj+PyLs5z+5CJryRregMILBzC2QqPZxlMGkzQJPPCEJaovEUjNf/q7nzH88kkys92m8taZ9Kbzm86KfpSl/bToq+uwzMQvHJVqlYiEONbUW22uzlznf/yv/41BEsWWdhTjBx7WaBJjOXvuHGfOnqVWG0AKkXPYqZMn+Juf/g2VaoixMHf/AQcOHuTlV15nYu9+NJLzF2/wT//03/nJX/2Ew4fH8VVC1Rvg9AefcPbMH7k5O8vhI5NID9oNmJt/gMHyxptv8PJbL+GFJYyFZstxS6UMg1XQbTjz6af827/+C6trdaIYyiWJ0WDiVP8agzUZaOlqHKt5Fq79EwFWNO/7kRSKRqNOYgUoH88vEceGH//kLzn13ItuRNokVColSmFIc63O6uoK1WotB0xYg6cklUoFhNNXlVqN6eMnOH7yFCNjZTTQij0OHJji5MlTHD4cMjIAPnDv5n6uXx/A83z8ABYXYwYHfWoDA4yMWqq1Ko1Gg+ZSA2MrhKUSzeYaD+frlHyJh2Z5eYVWOwKc/pWSfBqbFuD7Ab7v46WH73v4vv8Ys/fpkLcZLs7Ec9HIWF80F/hVMgQkOh0vwiqmDhyhVh2kUnWDMFeu3uLGtWu88NxzHD06hZKwuNhiceEhlXKJcqWGEJZEQ7PVZrXe4IszX7JUbzMwNIIRigcPVmm2WvzmN//OzZvjDA+VUYnHxYuXEFJRrdaIIoiimCjyqdfrXLx0iWt3Z6iNVWm2LYkOqQ0MkyQNjG6h0Cg0IomY2DPJrl3jAEQR+DJdFyBACokQ0ukwmR30rs3YEnoykfgYh77dTvC9EoEPq02LNYrAr5DEhi+/vMCeiUkmJkZYXFzm0qUrTB89hpJu1cjc3AM+/+xTJiZ288brrzE4FJIk0I5cT79xa5a1dkK5Okgr1qwst2g0GszNzdGOFmk1lhCx4uGdBcJAk2hNJQBGKvg+lMsV9u7by5GThzh88hD1piHWAdYqjGkShpJQCWzcQrcb1EKfvXv3YSwEKrUndGolGpuHpkwqFp0uk1suFZ/i6I1Aa4MMnDmNFRgDUaSxWnDj+i0ezi+CPYUQEikV9+7NcejQXjwF9+/f58bNGwwN1SiXgyyUh/I8KtUqw7v2cPjYCYZGxogSw/Ubd7l6ZZZTzz/P5OQwreYSvg24/OUV7ty+Qr3VIgaEgsRAYjRju8c4eOgw5UqVm7ev02gKYm2BCKU0HgZhYkqeIBzfhU5NCQ2QgI0hERDHMXEUu984Jopjotgihedcgy2kp5q95wXEqXIG0Boezi9Sqw0S+iWuX7/J7vHdjIyMMjQ0xLVr13jn7VdQCubn51FSMTY6RhhClOYhlUIbzdFjx3jjzbcY212iHUOlMsIvfvFbTp56junjZXzP6TCrFQ8e3kJ4Hs24M9260Wph8fACn3Y74u69OdqxR5IYlGdAxEib4KGpBIpqyccC0ncSwGqQBowknXRkMKZzaGMQ8llYiT2xv69DQQittrO0tIZWK2JtrU6tOsDhQ4e5emWGxlqDw4cOUS3XuHjhPEJAswn37t5nbGwXeyYmnbFhUk4F6vUGD+buc/vWbdbWxlhrtLl96zYSuHv3NjBGuewhDMzemyXBUK7VSCxo6xo60THtKCZOYoaGRzlydJpKbZTVehPfF0hpUDZBoZEmRuiYejNicKCE0enMZgVKglKq65CeQnkK8QxmJnqWPv7eVwIwHeOVgIFWK2F5aZnBwSGMtRycmiIMQpYWltCxZrA2xOpKnWYT5h8s8eDBAq+88hKjY7u7BjqDMKAUhnz8pz8xc/Um5coQrbZhpd5CJwm//MUvCUJBKfRQUrC48JDBWkhiDYl1EYylpZjYxCTacvXqDMnMDKXaMFaVWVpZJgx8onaTpN2gHCoGSiGttSUW5h/y4x9+j7LnjI7cRxYdp7njPD+L0O9TFIkWaLddCEoqsNagdcLQ0BBDg5IkAWM0D+7fZ2lhgYGBGuN7xjEazp37kiiOGN8zTrksqNfd80EgGazV8JRk+uhRJvdNUSoP0mpp7s7Ns7K6woljhylXAsrVECksn3/+KXNzt3m4ME85PEyrBQsLD9A6YmBwiChqcuHqNVRQ4uqNWRrNFiMjw0xOjKNIaNaX8TGMDFTYMzZCkrSRYeimYZtOXYudujsYvLX0FHWYC6F6vpv+1mo1WFxaYHCwSpxAtQovv/wC8/P3Ac1LL55ibGyYgUG4cuUiExO7mZwYdwOGxlCruVUuly9fYm7uHv/wD/+Fl15+jbAErRZ8+tklzp87w7tvv87R6V1Y3KrJ4eEyX575lGqtzFrTLdmdn5/j4YM59r20j+//xY/4awX35hv8z3/+F+7en+O//df/zMGDYzyYe8jMlQt4JPzlj37AUAj35xexxoIsYRKnw0yi0dodSf7bmYS0lbS5BX2bLIdSAhG4yEG9scrKyiLT00ddoNUKTp46TrOxj7HRUYaHoVye5PbsEvfu3eO73/0uQ4PDZMsB202LkIKL588T+h6jI0MMDUAQgK8g8AyKhHIgGajg9B6QxA0e3L9DEjXxFLQbTebuzrJ7bIix4RqehFYMVy6ewyQt3v/Re+weG6ZWBTMywFXd4sKFcxwYH+adV18m9KFS9gjToQAlQXkKz3P6y8t0macQ9ptagVkcr9g02XRht2CtHnPn7k3m5+/x2quvcfvWda62IhYWlxBCMjt7D6MNJtHMzMwwd2eBlcUmn53+kjAImJgY4fDBSVZXVpi5dJlT09NMjA3jkW4XEllsvIaJVgmVIWnCw8U6q/Ul5u/OInREqCxlD1YbK9y9OcPoyG727BqiXV/l4pVrfPT73zA0upuK53Pui7N81m7Tbq5yfeYS1y5dgaZmrDrCkYMH8IVAaAq7ILj5ib167JsfwHyywV+EsGhtaLXWaLfrlEs++yZ3c/36LDdn77Cy2sBYCdbDaos0sLq6yu6RSerLbWbWbgGg2/uYGBth4cE8a8vLvPXaqwxWQgLp/KKIFgNlydGDk1RDycN783zy2afcu3+bhwv3ObRvDwcmd+NLS2t1CY+EQ/snODCxi4cry1y/coGl+TkC32fu9ixxYllba+AJy+7hCYaer7G2OM/v/u1D9v6HvyOsBXgy5S4JSkqUkiipkModSkqE+ZaIROiMEGf7ktiee25QyQ1I+YHH3r2TvPLKS+zZs4tGo4FFo40lSRIsEPoBVmuUUmloR0IaPdg1WkVhGSxXeen5FzgxfYxapYSSoHWE7yVMHdjDj77/HoPVCvMP51EYyoHPkakDHD48xb6JCaJmk0qpxCsvv8z0sWl2jY4QJYapvZP4776DlR4Te8cplUpYawl9xejwAGVfcvvGDDOXL5Iky0RxFS+o5FtYCClcaEo6zpIiPX8GLPaVjI4MoN4V/0IKpJRUaxWOTR9h/779DA2WeeH5E7zw4gl8n3TxBIDB6ASwyHTsKxMzKvEJrGRirMzoz/6WSi2kXBEkRtOK6yhlOHxwL0PVUUqlEr43zvjuEYxJQGjK5YCy77O48JD9e/cysWs3vhcgpWBi9y5+/MP3QEE7cdsQmXToxFPpGmUDzx3bw+3jexkbDYnbTYzx0fhoCTp1lIuOs7EG+UyCv5ukrtkLYv3frrelQ/sWSmFIrVJFppM6pHTGghAQxQlaJ1RKJSIdkSQxJd+n1W7TarcJbBlPVWjGln3jJe4vtpDCIygpykEZi6aEYM+uMtpAuRQgZECjmWCtplIJsUbjSUXJ92kbm4/XJYlBej6BLwn8dO+RBFrNhErZw/eh3W4TlkImxidREqwnQSg3l964pbRZpMOmB+kg5xYvXnnCmb+iG6z8OuSr760ET7qums3NCLJKRG48ycNZVnFswCoUEh1ZAhkSlEsoo9KFPIJGGyrlEhZN3IrTyTE+9URjrcs423cs8NzGCybWCAHDg8NE7SSPQHieQnm+G9NKt7kyGpSFaugiJUkbfBGStAFCjLZIGbg1Aqa/xSysm5rQb1LQ06Yn4rAu6gHPkE4ytdlso8LIeVoZabP0LipihIuLiVR3ZeukcyM1iyzkbqlITWdBcavHfC6T7bSayDcBK7SedQXKd9+hOKlm/VwVLPnsqY06a29dt9p33vTGKtlvP5HYmzCveGFUOu+B6W8+uylv43SVi+3umO4d2SILWWiP9S3jxHEKRmEljSgmSM8fxQR5uxdvinS0+dlEoDakr2Ql9hWJdHojdCbqdE0jKHTj4iBo1oQii/nk1qhI51B0uLKbDN25FX2hzl/9Or0o3HgUU2T1FnSm563L5xnS1oze9AOLTnzUNUAubDoPZWCKPvogzaNvDxfdCYV4HA/1ebyQbLMrZIpi1cC3a9uHJ6EiR2Xb7uXcVJCDbucLF4XMJnN2FoJ3w5ld6883Pc92gVXUTo8ocO/540DruZ/NV9xqerLgl+00/fom6IlZ9yq+/qdd9CjHM2eiRyr23hv9ExYNocdSwRLZSH/Z4r0t5rIn5DAFuYUlCnUxztvEGQciNdiKRy4Os39FUbeZEEFvA9uvZgD02xAzza7/jZ77Hcs1u/oM2KpAm7YSNWCkRAiNRxtFkvdUZxo78zzbzS2fHy/c1LCuTSd7Mu/f7n1atriYsM9DGwu/4nNi3cL2brFblBOdnYqtFW7nUuG6qrTgG4NvjHNL6OxRvJW0KcAM0AZiTxDHq4jWPJ5poSzUSpC0XS2ltihsbuEZAVranuW1trOIwbomyZV+3nIpW/YY+JvhqK6FDTbz4QoLDfN815k87tfi9iMWBis0CO2MChPg5qGD53nUSmWCWFNKNJUgpKxKm2nKr01PxGHWU4SBoKLayKRFEgHVtNcKiUwEKo0GmHR5iRG2a3lRF1gZ12Vcts6nezRHPZbyTmA7nJNvqJgC2StnU5vPgZXuL4UFIUmMSrkNdDuGVgsvjokbLZr4eBZC8S3YWEWkCX0pqVXKlEIfnSRELYgNaAS+8pCJxdPWrVixbvhESrddhJGF7cixna3qRNcPPZc3vLBZzdFl4dNtjjvfTxT8v1QA2s7qMITCYtFCEdmEJPLRCdTX6ghh8XxJFLdptkMq0nMB0y2kTQOmcBNRauWQUuAAa7djYu1n9UIiUNqipBthNsLiGcdhRoKWkAhLkjngoqN3HgtYn0JtBrSi8VbwKPJfge38bR13ZWLbmVUSKyDxFdpGRLFCx5JGvUm5HDAwUEao1HkR34I9f7NGUUDNl4wODhB6iuWlZeYXFhif3IMXuE2cEZ2paR3OEaiM26xzLpXo1muF5PlLHz9+m20++ejCd1m0OTBZzYrOe/4dicITbuqaTc89TxJHkrXVNgsLS5RKPuMTY4SlIP8cyfrKPF16JGBFC0oCwyXYP76bShgwOzvL+YuXOHZqD76Aejrx01cdJCTZaEPH1FfYdIvZjl5av8h9M3C5Bx/FZSLNK09PB7DseYei25+nYx1KspHa7MsSxkA5DIgiuHXzLjeuz1IqBRw9NkWlWiHWmkQYrJJb6optioczcWITy8hQjck9u0mSmAuXLrOwBPX0kyyJDy3P7ZITK0ikO4zoXte8zr3tIw+z2MdGB6zPp5e60qciOFtj7Ywhi5YGLQxaaozU7lxaEiFIhCQRikQoNBDpiPv3l7hw8SqLS8vsP7CXQ4cOMDDoE5ZK+Fs9T5vHcFjWjhKwOsEmCfsnxzl14jgXr17j8zNn+PTMl3zn1ecZ3wWR5+aeK+NmqCrjpk9L01njbET2tYnuXt/1Xtv/epGKHPqoROsMz+J5Lh9Nar4XIpzW1Ty3G4VgeWWJs19e5k9//oRSqcI777zFxGSJSuis6GdBm9ovERxgwiSMDg3y/KkTXJi5zm8/Os3Pf/Er8BRvvnWSWtVNdfOExZh0Pa4FKWxnUTrrASu+BzLANoxB5PQ4wDqi1nbS2+xZ2xGpqU/hdkBwy6SywVGbuh9rzYSzF6/z4cenmZuf47kTx3n3e29iTWeKgbE8i83BNkHW4lmJxQMpOLB/gnfefpPZ+4t88cV5ElGirSVvvzbNriEBQuB5zmpsx+1ME6QukLO8irZhN0elC7x7GnsdPUZ/ZRkWYe/ordS1SJe9Ok6SGOtKKvBRyq2+8X1YWYM/f3mLX/z2PGcv3WR0YoAfvv86u8ZDwgC81KDyxKOlwtOgRxsdWSjIgi/csL6wkuHBgOdOHucHiw0aiWTm+h3+z//9NWuL9zh5eIw946OMj49SLYcYT6afysgq4z66A7IrtLWx6LLrrjwJdem7fo65BRefSU/TB4yA5TW4ffshZ85f5nefnuPS3QUmxvfx3puneOX145TK4EuDZyUhPDJ4/bRIGNtvw7y0TtnYudWIdOF1InwiK1mNYPZBnT99fo5f/vsHXLt5k7HBCgcPjDM1NcXU1AEm9uyhVC6Ta3wk7tsGXuG86410NbHovfYUKtyl17psx/yaMYb6ap0bN27wxZkzXJmZYW5phT1TU/z4vVf54bsvcXT/LnzaBGhC6xHgkU8u2UJ6LGDOHE9ARCA0CZ47REAE3FuI+N0fP+b0Z2e5fPkaUWTwfbfsddeuCcKwikUBCmsdWBafznZCBU8onxSRmdtPD6xM7GZTFQTZgKNNd721CKERwqCTFkuL89y7O8tafYVKtcTBQ5W0eFIAAAKtSURBVPt55dUXefvN5zi2fzc+bTxaBFgCPDzcpyad0No60DYBmMXiYmpWaAwKbSVGuLXMbeDeYoOF5TU+PXOei1euc/XqdWZn75Eklno9AuvloIGH7f1YDpkBkX1usSjIng5oecQjdcolpJNAXfZCWGQa9PWUpVTyGBgoMz19mOnpI3zn5eeZOjDJYE1QRpOwQhlnBSt8JAqBj/gmAYNsi7ksap1GrhFoq9BItJVYBFq4EM7NhWXOn7/MzRuzrK42aTYTsBlY6Zz0PHq+ztCm2xZ/uuIwo85r0xcZ97dIP/UYhIqJiTEOHTrAsWOHqFVLlLxM4cdAHUWCj8VDIgiQKVhii79xtEnAjLPK0u+qOAvLfQ0sU3Ma8JVPHWjqBGNAJxYpM33l6Im+/vMMlHgvEwvh1repdMfw7EuCzl0zCNFEiBZKWLyUVwVheog8srJVS482CViawqYR93QY2f24mhosMYbYGoSUeJ7nNh0xutDuIu2BqtNAW1KtzZDN328LTqFI46FSuMm8cQRJbPE8txeV9GKkjHByJqtPCWzXFp/fFGB0ALPFa3RMcpvxXBrQFW7wxFiNsTGCBFlgK2F9yBS0dSKyIwXtxmJyS8jm9XF1dNFPmS5ssMYtajfGfb5aeSCUBhmngTPhfFPrOSEkMtPefgsA67pYOAp6R0i3T4W1Bm001mqnzDPNDmS6LJvQs/7d/cDZKsB6X9PH1ShY/iKTjUJn5pFLb1V3pCb/7+mTsE+4s7DNQSo41tC1b33PE72vfLISfmupsP9xv3r36edPg75C5KsbpH5/d9P/LwD1UlFqPDt6YsCKwDyLbb+/zbQhZ20hfa3Y8rNYNb9D3fQsPiq3Q0+RdgDbZrQD2DajHcC2Ge0Ats1oB7BtRjuAbTPaAWyb0Q5g24z+Hzz7b/r6MQVgAAAAAElFTkSuQmCC;" vertex="1" parent="1">
                    <mxGeometry x="607.9966259765625" y="84" width="108" height="109" as="geometry"/>
                </mxCell>
                <mxCell id="3" value="CCA Data Logger" style="whiteSpace=wrap;html=1;rounded=1;glass=1;shadow=1;" vertex="1" parent="1">
                    <mxGeometry x="251.5" y="695" width="120" height="60" as="geometry"/>
                </mxCell>
                <mxCell id="11" value="&lt;b&gt;数据源&lt;/b&gt;" style="rounded=1;whiteSpace=wrap;html=1;glass=0;shadow=0;strokeWidth=3;fillColor=#f2f6fd;horizontal=1;verticalAlign=top;spacingTop=6;strokeColor=#82b366;fillStyle=auto;" vertex="1" parent="1">
                    <mxGeometry x="236" y="363" width="151" height="478" as="geometry"/>
                </mxCell>
                <mxCell id="4" value="Data Base" style="whiteSpace=wrap;html=1;rounded=1;glass=0;shadow=0;" vertex="1" parent="1">
                    <mxGeometry x="254" y="407" width="120" height="60" as="geometry"/>
                </mxCell>
                <mxCell id="14" value="Plain Text" style="whiteSpace=wrap;html=1;rounded=1;glass=0;shadow=0;" vertex="1" parent="1">
                    <mxGeometry x="254" y="491" width="120" height="60" as="geometry"/>
                </mxCell>
                <mxCell id="15" value="Image and Video" style="whiteSpace=wrap;html=1;rounded=1;glass=0;shadow=0;" vertex="1" parent="1">
                    <mxGeometry x="254" y="575" width="120" height="60" as="geometry"/>
                </mxCell>
                <mxCell id="16" value="Web Service" style="whiteSpace=wrap;html=1;rounded=1;glass=0;shadow=0;" vertex="1" parent="1">
                    <mxGeometry x="254" y="654" width="120" height="60" as="geometry"/>
                </mxCell>
                <mxCell id="17" value="CCA Data Logger" style="whiteSpace=wrap;html=1;rounded=1;glass=0;shadow=0;" vertex="1" parent="1">
                    <mxGeometry x="251.5" y="736" width="120" height="60" as="geometry"/>
                </mxCell>
                <mxCell id="22" value="&lt;b&gt;基础设施&lt;/b&gt;" style="rounded=1;whiteSpace=wrap;html=1;glass=0;shadow=0;strokeWidth=3;fillColor=#f2f6fd;horizontal=1;verticalAlign=bottom;spacingTop=6;strokeColor=#82b366;fillStyle=auto;spacing=6;" vertex="1" parent="1">
                    <mxGeometry x="423" y="710" width="1041" height="127" as="geometry"/>
                </mxCell>
            </root>
        </mxGraphModel>
    </diagram>
</mxfile>